<mxfile host="app.diagrams.net" modified="2024-02-11T19:35:23.990Z" agent="Mozilla/5.0 (Windows NT 10.0; Win64; x64) AppleWebKit/537.36 (KHTML, like Gecko) Chrome/121.0.0.0 Safari/537.36" etag="8nzKHhQq0LoFnjzitNCC" version="23.1.2" type="device">
  <diagram name="Page-1" id="2Rx4g1LED8d11DEol68b">
    <mxGraphModel dx="1088" dy="478" grid="1" gridSize="10" guides="1" tooltips="1" connect="1" arrows="1" fold="1" page="1" pageScale="1" pageWidth="827" pageHeight="1169" math="0" shadow="0">
      <root>
        <mxCell id="0" />
        <mxCell id="1" parent="0" />
        <mxCell id="l09lSK-N2BdjV8PcD0mf-1" value="" style="rounded=0;whiteSpace=wrap;html=1;fillColor=#dae8fc;strokeColor=#6c8ebf;" vertex="1" parent="1">
          <mxGeometry x="120" y="330" width="640" height="30" as="geometry" />
        </mxCell>
        <mxCell id="l09lSK-N2BdjV8PcD0mf-12" value="" style="verticalLabelPosition=bottom;verticalAlign=top;html=1;shape=mxgraph.basic.acute_triangle;dx=0.5;fillColor=#dae8fc;strokeColor=#6c8ebf;" vertex="1" parent="1">
          <mxGeometry x="735" y="360" width="50" height="40" as="geometry" />
        </mxCell>
        <mxCell id="l09lSK-N2BdjV8PcD0mf-14" value="" style="ellipse;whiteSpace=wrap;html=1;fillColor=#dae8fc;strokeColor=#6c8ebf;" vertex="1" parent="1">
          <mxGeometry x="735" y="400" width="10" height="10" as="geometry" />
        </mxCell>
        <mxCell id="l09lSK-N2BdjV8PcD0mf-15" value="" style="ellipse;whiteSpace=wrap;html=1;fillColor=#dae8fc;strokeColor=#6c8ebf;" vertex="1" parent="1">
          <mxGeometry x="755" y="400" width="10" height="10" as="geometry" />
        </mxCell>
        <mxCell id="l09lSK-N2BdjV8PcD0mf-16" value="" style="ellipse;whiteSpace=wrap;html=1;fillColor=#dae8fc;strokeColor=#6c8ebf;" vertex="1" parent="1">
          <mxGeometry x="775" y="400" width="10" height="10" as="geometry" />
        </mxCell>
        <mxCell id="l09lSK-N2BdjV8PcD0mf-17" value="" style="verticalLabelPosition=bottom;verticalAlign=top;html=1;shape=mxgraph.basic.acute_triangle;dx=0.5;fillColor=#dae8fc;strokeColor=#6c8ebf;" vertex="1" parent="1">
          <mxGeometry x="95" y="361" width="50" height="40" as="geometry" />
        </mxCell>
        <mxCell id="l09lSK-N2BdjV8PcD0mf-20" value="" style="endArrow=none;dashed=1;html=1;dashPattern=1 3;strokeWidth=2;rounded=0;" edge="1" parent="1">
          <mxGeometry width="50" height="50" relative="1" as="geometry">
            <mxPoint x="440" y="480" as="sourcePoint" />
            <mxPoint x="440" y="200" as="targetPoint" />
          </mxGeometry>
        </mxCell>
        <mxCell id="l09lSK-N2BdjV8PcD0mf-27" value="" style="ellipse;whiteSpace=wrap;html=1;fillColor=#f5f5f5;strokeColor=#666666;fontColor=#333333;" vertex="1" parent="1">
          <mxGeometry x="200" y="290" width="40" height="40" as="geometry" />
        </mxCell>
        <mxCell id="l09lSK-N2BdjV8PcD0mf-28" value="" style="endArrow=classic;html=1;rounded=0;entryX=0.5;entryY=1;entryDx=0;entryDy=0;fillColor=#f8cecc;strokeColor=#b85450;strokeWidth=3;" edge="1" parent="1" target="l09lSK-N2BdjV8PcD0mf-27">
          <mxGeometry width="50" height="50" relative="1" as="geometry">
            <mxPoint x="220" y="210" as="sourcePoint" />
            <mxPoint x="519" y="459" as="targetPoint" />
          </mxGeometry>
        </mxCell>
        <mxCell id="l09lSK-N2BdjV8PcD0mf-31" value="" style="ellipse;whiteSpace=wrap;html=1;fillColor=#f5f5f5;fontColor=#333333;strokeColor=#666666;" vertex="1" parent="1">
          <mxGeometry x="280" y="290" width="40" height="40" as="geometry" />
        </mxCell>
        <mxCell id="l09lSK-N2BdjV8PcD0mf-32" value="" style="endArrow=classic;html=1;rounded=0;entryX=0.5;entryY=1;entryDx=0;entryDy=0;fillColor=#f8cecc;strokeColor=#b85450;strokeWidth=3;" edge="1" parent="1" target="l09lSK-N2BdjV8PcD0mf-31">
          <mxGeometry width="50" height="50" relative="1" as="geometry">
            <mxPoint x="300" y="210" as="sourcePoint" />
            <mxPoint x="599" y="459" as="targetPoint" />
          </mxGeometry>
        </mxCell>
        <mxCell id="l09lSK-N2BdjV8PcD0mf-33" value="" style="ellipse;whiteSpace=wrap;html=1;fillColor=#f5f5f5;fontColor=#333333;strokeColor=#666666;" vertex="1" parent="1">
          <mxGeometry x="540" y="290" width="40" height="40" as="geometry" />
        </mxCell>
        <mxCell id="l09lSK-N2BdjV8PcD0mf-34" value="" style="endArrow=classic;html=1;rounded=0;entryX=0.5;entryY=1;entryDx=0;entryDy=0;fillColor=#f8cecc;strokeColor=#b85450;strokeWidth=3;" edge="1" parent="1" target="l09lSK-N2BdjV8PcD0mf-33">
          <mxGeometry width="50" height="50" relative="1" as="geometry">
            <mxPoint x="560" y="210" as="sourcePoint" />
            <mxPoint x="859" y="459" as="targetPoint" />
          </mxGeometry>
        </mxCell>
        <mxCell id="l09lSK-N2BdjV8PcD0mf-35" value="" style="endArrow=classic;html=1;rounded=0;entryX=0.5;entryY=1;entryDx=0;entryDy=0;fillColor=#f8cecc;strokeColor=#b85450;strokeWidth=4;" edge="1" parent="1">
          <mxGeometry width="50" height="50" relative="1" as="geometry">
            <mxPoint x="360" y="210" as="sourcePoint" />
            <mxPoint x="360" y="330" as="targetPoint" />
          </mxGeometry>
        </mxCell>
        <mxCell id="l09lSK-N2BdjV8PcD0mf-36" value="" style="endArrow=classic;startArrow=classic;html=1;rounded=0;" edge="1" parent="1">
          <mxGeometry width="50" height="50" relative="1" as="geometry">
            <mxPoint x="360" y="240" as="sourcePoint" />
            <mxPoint x="440" y="240" as="targetPoint" />
          </mxGeometry>
        </mxCell>
        <mxCell id="l09lSK-N2BdjV8PcD0mf-37" value="" style="endArrow=classic;startArrow=classic;html=1;rounded=0;" edge="1" parent="1">
          <mxGeometry width="50" height="50" relative="1" as="geometry">
            <mxPoint x="438" y="270" as="sourcePoint" />
            <mxPoint x="558" y="270" as="targetPoint" />
          </mxGeometry>
        </mxCell>
        <mxCell id="l09lSK-N2BdjV8PcD0mf-38" value="&lt;font style=&quot;font-size: 24px;&quot;&gt;x&#39; -x&lt;/font&gt;" style="text;html=1;strokeColor=none;fillColor=none;align=center;verticalAlign=middle;whiteSpace=wrap;rounded=0;" vertex="1" parent="1">
          <mxGeometry x="370" y="200" width="56" height="30" as="geometry" />
        </mxCell>
        <mxCell id="l09lSK-N2BdjV8PcD0mf-39" value="&lt;font style=&quot;font-size: 24px;&quot;&gt;x&#39;&lt;/font&gt;" style="text;html=1;strokeColor=none;fillColor=none;align=center;verticalAlign=middle;whiteSpace=wrap;rounded=0;" vertex="1" parent="1">
          <mxGeometry x="440" y="370" width="56" height="30" as="geometry" />
        </mxCell>
        <mxCell id="l09lSK-N2BdjV8PcD0mf-40" value="" style="endArrow=classic;startArrow=classic;html=1;rounded=0;" edge="1" parent="1">
          <mxGeometry width="50" height="50" relative="1" as="geometry">
            <mxPoint x="360" y="400" as="sourcePoint" />
            <mxPoint x="560" y="400" as="targetPoint" />
          </mxGeometry>
        </mxCell>
        <mxCell id="l09lSK-N2BdjV8PcD0mf-42" value="" style="endArrow=none;html=1;rounded=0;" edge="1" parent="1" target="l09lSK-N2BdjV8PcD0mf-33">
          <mxGeometry width="50" height="50" relative="1" as="geometry">
            <mxPoint x="560" y="410" as="sourcePoint" />
            <mxPoint x="540" y="360" as="targetPoint" />
          </mxGeometry>
        </mxCell>
        <mxCell id="l09lSK-N2BdjV8PcD0mf-43" value="&lt;font style=&quot;font-size: 24px;&quot;&gt;x&lt;/font&gt;" style="text;html=1;strokeColor=none;fillColor=none;align=center;verticalAlign=middle;whiteSpace=wrap;rounded=0;" vertex="1" parent="1">
          <mxGeometry x="470" y="240" width="56" height="30" as="geometry" />
        </mxCell>
        <mxCell id="l09lSK-N2BdjV8PcD0mf-46" value="" style="endArrow=classic;startArrow=classic;html=1;rounded=0;" edge="1" parent="1">
          <mxGeometry width="50" height="50" relative="1" as="geometry">
            <mxPoint x="120" y="460" as="sourcePoint" />
            <mxPoint x="440" y="460" as="targetPoint" />
          </mxGeometry>
        </mxCell>
        <mxCell id="l09lSK-N2BdjV8PcD0mf-47" value="" style="endArrow=classic;startArrow=classic;html=1;rounded=0;" edge="1" parent="1">
          <mxGeometry width="50" height="50" relative="1" as="geometry">
            <mxPoint x="440" y="460" as="sourcePoint" />
            <mxPoint x="760" y="460" as="targetPoint" />
          </mxGeometry>
        </mxCell>
        <mxCell id="l09lSK-N2BdjV8PcD0mf-48" value="&lt;font style=&quot;font-size: 24px;&quot;&gt;L / 2&lt;/font&gt;" style="text;html=1;strokeColor=none;fillColor=none;align=center;verticalAlign=middle;whiteSpace=wrap;rounded=0;" vertex="1" parent="1">
          <mxGeometry x="250" y="420" width="56" height="30" as="geometry" />
        </mxCell>
        <mxCell id="l09lSK-N2BdjV8PcD0mf-50" value="&lt;font style=&quot;font-size: 24px;&quot;&gt;L / 2&lt;/font&gt;" style="text;html=1;strokeColor=none;fillColor=none;align=center;verticalAlign=middle;whiteSpace=wrap;rounded=0;" vertex="1" parent="1">
          <mxGeometry x="570" y="420" width="56" height="30" as="geometry" />
        </mxCell>
        <mxCell id="l09lSK-N2BdjV8PcD0mf-51" value="" style="endArrow=classic;html=1;rounded=0;fillColor=#f8cecc;strokeColor=#b85450;strokeWidth=3;" edge="1" parent="1">
          <mxGeometry width="50" height="50" relative="1" as="geometry">
            <mxPoint x="120" y="480" as="sourcePoint" />
            <mxPoint x="120" y="400" as="targetPoint" />
          </mxGeometry>
        </mxCell>
        <mxCell id="l09lSK-N2BdjV8PcD0mf-52" value="" style="endArrow=classic;html=1;rounded=0;fillColor=#f8cecc;strokeColor=#b85450;entryX=0.5;entryY=1;entryDx=0;entryDy=0;strokeWidth=3;" edge="1" parent="1" target="l09lSK-N2BdjV8PcD0mf-15">
          <mxGeometry width="50" height="50" relative="1" as="geometry">
            <mxPoint x="760" y="480" as="sourcePoint" />
            <mxPoint x="760" y="420" as="targetPoint" />
          </mxGeometry>
        </mxCell>
        <mxCell id="l09lSK-N2BdjV8PcD0mf-53" value="&lt;font style=&quot;font-size: 24px;&quot;&gt;R&lt;sub&gt;A&lt;/sub&gt;&lt;/font&gt;" style="text;html=1;strokeColor=none;fillColor=none;align=center;verticalAlign=middle;whiteSpace=wrap;rounded=0;strokeWidth=24;" vertex="1" parent="1">
          <mxGeometry x="89" y="490" width="56" height="30" as="geometry" />
        </mxCell>
        <mxCell id="l09lSK-N2BdjV8PcD0mf-54" value="&lt;font style=&quot;font-size: 24px;&quot;&gt;R&lt;sub&gt;B&lt;/sub&gt;&lt;/font&gt;" style="text;html=1;strokeColor=none;fillColor=none;align=center;verticalAlign=middle;whiteSpace=wrap;rounded=0;strokeWidth=24;" vertex="1" parent="1">
          <mxGeometry x="735" y="490" width="56" height="30" as="geometry" />
        </mxCell>
        <mxCell id="l09lSK-N2BdjV8PcD0mf-57" value="&lt;font style=&quot;font-size: 24px;&quot;&gt;A&lt;/font&gt;" style="text;html=1;strokeColor=none;fillColor=none;align=center;verticalAlign=middle;whiteSpace=wrap;rounded=0;" vertex="1" parent="1">
          <mxGeometry x="70" y="330" width="56" height="30" as="geometry" />
        </mxCell>
        <mxCell id="l09lSK-N2BdjV8PcD0mf-58" value="&lt;font style=&quot;font-size: 24px;&quot;&gt;B&lt;/font&gt;" style="text;html=1;strokeColor=none;fillColor=none;align=center;verticalAlign=middle;whiteSpace=wrap;rounded=0;" vertex="1" parent="1">
          <mxGeometry x="752" y="331" width="56" height="30" as="geometry" />
        </mxCell>
        <mxCell id="l09lSK-N2BdjV8PcD0mf-59" value="&lt;font style=&quot;font-size: 24px;&quot;&gt;P&lt;sub&gt;1&lt;/sub&gt;&lt;/font&gt;" style="text;html=1;strokeColor=none;fillColor=none;align=center;verticalAlign=middle;whiteSpace=wrap;rounded=0;" vertex="1" parent="1">
          <mxGeometry x="200" y="170" width="56" height="30" as="geometry" />
        </mxCell>
        <mxCell id="l09lSK-N2BdjV8PcD0mf-60" value="&lt;font style=&quot;font-size: 24px;&quot;&gt;P&lt;sub&gt;2&lt;/sub&gt;&lt;/font&gt;" style="text;html=1;strokeColor=none;fillColor=none;align=center;verticalAlign=middle;whiteSpace=wrap;rounded=0;" vertex="1" parent="1">
          <mxGeometry x="272" y="170" width="56" height="30" as="geometry" />
        </mxCell>
        <mxCell id="l09lSK-N2BdjV8PcD0mf-61" value="&lt;font style=&quot;font-size: 24px;&quot;&gt;P&lt;sub&gt;R&lt;/sub&gt;&lt;/font&gt;" style="text;html=1;strokeColor=none;fillColor=none;align=center;verticalAlign=middle;whiteSpace=wrap;rounded=0;" vertex="1" parent="1">
          <mxGeometry x="336" y="170" width="56" height="30" as="geometry" />
        </mxCell>
        <mxCell id="l09lSK-N2BdjV8PcD0mf-62" value="&lt;font style=&quot;font-size: 24px;&quot;&gt;P&lt;sub&gt;3&lt;/sub&gt;&lt;/font&gt;" style="text;html=1;strokeColor=none;fillColor=none;align=center;verticalAlign=middle;whiteSpace=wrap;rounded=0;" vertex="1" parent="1">
          <mxGeometry x="540" y="170" width="56" height="30" as="geometry" />
        </mxCell>
        <mxCell id="l09lSK-N2BdjV8PcD0mf-63" value="" style="endArrow=none;html=1;rounded=0;" edge="1" parent="1">
          <mxGeometry width="50" height="50" relative="1" as="geometry">
            <mxPoint x="360" y="410" as="sourcePoint" />
            <mxPoint x="360" y="330" as="targetPoint" />
          </mxGeometry>
        </mxCell>
        <mxCell id="l09lSK-N2BdjV8PcD0mf-100" value="" style="rounded=0;whiteSpace=wrap;html=1;fillColor=#dae8fc;strokeColor=#6c8ebf;" vertex="1" parent="1">
          <mxGeometry x="103" y="800" width="640" height="30" as="geometry" />
        </mxCell>
        <mxCell id="l09lSK-N2BdjV8PcD0mf-101" value="" style="verticalLabelPosition=bottom;verticalAlign=top;html=1;shape=mxgraph.basic.acute_triangle;dx=0.5;fillColor=#dae8fc;strokeColor=#6c8ebf;" vertex="1" parent="1">
          <mxGeometry x="718" y="830" width="50" height="40" as="geometry" />
        </mxCell>
        <mxCell id="l09lSK-N2BdjV8PcD0mf-102" value="" style="ellipse;whiteSpace=wrap;html=1;fillColor=#dae8fc;strokeColor=#6c8ebf;" vertex="1" parent="1">
          <mxGeometry x="718" y="870" width="10" height="10" as="geometry" />
        </mxCell>
        <mxCell id="l09lSK-N2BdjV8PcD0mf-103" value="" style="ellipse;whiteSpace=wrap;html=1;fillColor=#dae8fc;strokeColor=#6c8ebf;" vertex="1" parent="1">
          <mxGeometry x="738" y="870" width="10" height="10" as="geometry" />
        </mxCell>
        <mxCell id="l09lSK-N2BdjV8PcD0mf-104" value="" style="ellipse;whiteSpace=wrap;html=1;fillColor=#dae8fc;strokeColor=#6c8ebf;" vertex="1" parent="1">
          <mxGeometry x="758" y="870" width="10" height="10" as="geometry" />
        </mxCell>
        <mxCell id="l09lSK-N2BdjV8PcD0mf-105" value="" style="verticalLabelPosition=bottom;verticalAlign=top;html=1;shape=mxgraph.basic.acute_triangle;dx=0.5;fillColor=#dae8fc;strokeColor=#6c8ebf;" vertex="1" parent="1">
          <mxGeometry x="78" y="831" width="50" height="40" as="geometry" />
        </mxCell>
        <mxCell id="l09lSK-N2BdjV8PcD0mf-106" value="" style="endArrow=none;dashed=1;html=1;dashPattern=1 3;strokeWidth=2;rounded=0;" edge="1" parent="1">
          <mxGeometry width="50" height="50" relative="1" as="geometry">
            <mxPoint x="423" y="950" as="sourcePoint" />
            <mxPoint x="423" y="670" as="targetPoint" />
          </mxGeometry>
        </mxCell>
        <mxCell id="l09lSK-N2BdjV8PcD0mf-121" value="" style="endArrow=classic;startArrow=classic;html=1;rounded=0;" edge="1" parent="1">
          <mxGeometry width="50" height="50" relative="1" as="geometry">
            <mxPoint x="103" y="930" as="sourcePoint" />
            <mxPoint x="423" y="930" as="targetPoint" />
          </mxGeometry>
        </mxCell>
        <mxCell id="l09lSK-N2BdjV8PcD0mf-122" value="" style="endArrow=classic;startArrow=classic;html=1;rounded=0;" edge="1" parent="1">
          <mxGeometry width="50" height="50" relative="1" as="geometry">
            <mxPoint x="423" y="930" as="sourcePoint" />
            <mxPoint x="743" y="930" as="targetPoint" />
          </mxGeometry>
        </mxCell>
        <mxCell id="l09lSK-N2BdjV8PcD0mf-123" value="&lt;font style=&quot;font-size: 24px;&quot;&gt;L / 2&lt;/font&gt;" style="text;html=1;strokeColor=none;fillColor=none;align=center;verticalAlign=middle;whiteSpace=wrap;rounded=0;" vertex="1" parent="1">
          <mxGeometry x="233" y="890" width="56" height="30" as="geometry" />
        </mxCell>
        <mxCell id="l09lSK-N2BdjV8PcD0mf-124" value="&lt;font style=&quot;font-size: 24px;&quot;&gt;L / 2&lt;/font&gt;" style="text;html=1;strokeColor=none;fillColor=none;align=center;verticalAlign=middle;whiteSpace=wrap;rounded=0;" vertex="1" parent="1">
          <mxGeometry x="553" y="890" width="56" height="30" as="geometry" />
        </mxCell>
        <mxCell id="l09lSK-N2BdjV8PcD0mf-125" value="" style="endArrow=classic;html=1;rounded=0;fillColor=#f8cecc;strokeColor=#b85450;strokeWidth=3;" edge="1" parent="1">
          <mxGeometry width="50" height="50" relative="1" as="geometry">
            <mxPoint x="103" y="950" as="sourcePoint" />
            <mxPoint x="103" y="870" as="targetPoint" />
          </mxGeometry>
        </mxCell>
        <mxCell id="l09lSK-N2BdjV8PcD0mf-126" value="" style="endArrow=classic;html=1;rounded=0;fillColor=#f8cecc;strokeColor=#b85450;entryX=0.5;entryY=1;entryDx=0;entryDy=0;strokeWidth=3;" edge="1" parent="1" target="l09lSK-N2BdjV8PcD0mf-103">
          <mxGeometry width="50" height="50" relative="1" as="geometry">
            <mxPoint x="743" y="950" as="sourcePoint" />
            <mxPoint x="743" y="890" as="targetPoint" />
          </mxGeometry>
        </mxCell>
        <mxCell id="l09lSK-N2BdjV8PcD0mf-127" value="&lt;font style=&quot;font-size: 24px;&quot;&gt;R&lt;sub&gt;A&lt;/sub&gt;&lt;/font&gt;" style="text;html=1;strokeColor=none;fillColor=none;align=center;verticalAlign=middle;whiteSpace=wrap;rounded=0;strokeWidth=24;" vertex="1" parent="1">
          <mxGeometry x="72" y="960" width="56" height="30" as="geometry" />
        </mxCell>
        <mxCell id="l09lSK-N2BdjV8PcD0mf-128" value="&lt;font style=&quot;font-size: 24px;&quot;&gt;R&lt;sub&gt;B&lt;/sub&gt;&lt;/font&gt;" style="text;html=1;strokeColor=none;fillColor=none;align=center;verticalAlign=middle;whiteSpace=wrap;rounded=0;strokeWidth=24;" vertex="1" parent="1">
          <mxGeometry x="718" y="960" width="56" height="30" as="geometry" />
        </mxCell>
        <mxCell id="l09lSK-N2BdjV8PcD0mf-129" value="&lt;font style=&quot;font-size: 24px;&quot;&gt;A&lt;/font&gt;" style="text;html=1;strokeColor=none;fillColor=none;align=center;verticalAlign=middle;whiteSpace=wrap;rounded=0;" vertex="1" parent="1">
          <mxGeometry x="53" y="800" width="56" height="30" as="geometry" />
        </mxCell>
        <mxCell id="l09lSK-N2BdjV8PcD0mf-130" value="&lt;font style=&quot;font-size: 24px;&quot;&gt;B&lt;/font&gt;" style="text;html=1;strokeColor=none;fillColor=none;align=center;verticalAlign=middle;whiteSpace=wrap;rounded=0;" vertex="1" parent="1">
          <mxGeometry x="735" y="801" width="56" height="30" as="geometry" />
        </mxCell>
        <mxCell id="l09lSK-N2BdjV8PcD0mf-136" value="" style="ellipse;whiteSpace=wrap;html=1;fillColor=#f5f5f5;strokeColor=#666666;fontColor=#333333;" vertex="1" parent="1">
          <mxGeometry x="180" y="1360" width="40" height="40" as="geometry" />
        </mxCell>
        <mxCell id="l09lSK-N2BdjV8PcD0mf-137" value="" style="endArrow=classic;html=1;rounded=0;entryX=0.5;entryY=1;entryDx=0;entryDy=0;fillColor=#f8cecc;strokeColor=#b85450;strokeWidth=3;" edge="1" parent="1" target="l09lSK-N2BdjV8PcD0mf-136">
          <mxGeometry width="50" height="50" relative="1" as="geometry">
            <mxPoint x="200" y="1280" as="sourcePoint" />
            <mxPoint x="499" y="1529" as="targetPoint" />
          </mxGeometry>
        </mxCell>
        <mxCell id="l09lSK-N2BdjV8PcD0mf-138" value="" style="ellipse;whiteSpace=wrap;html=1;fillColor=#f5f5f5;fontColor=#333333;strokeColor=#666666;" vertex="1" parent="1">
          <mxGeometry x="338" y="1360" width="40" height="40" as="geometry" />
        </mxCell>
        <mxCell id="l09lSK-N2BdjV8PcD0mf-139" value="" style="endArrow=classic;html=1;rounded=0;entryX=0.5;entryY=1;entryDx=0;entryDy=0;fillColor=#f8cecc;strokeColor=#b85450;strokeWidth=3;" edge="1" parent="1" target="l09lSK-N2BdjV8PcD0mf-138">
          <mxGeometry width="50" height="50" relative="1" as="geometry">
            <mxPoint x="358" y="1280" as="sourcePoint" />
            <mxPoint x="657" y="1529" as="targetPoint" />
          </mxGeometry>
        </mxCell>
        <mxCell id="l09lSK-N2BdjV8PcD0mf-140" value="" style="ellipse;whiteSpace=wrap;html=1;fillColor=#f5f5f5;fontColor=#333333;strokeColor=#666666;" vertex="1" parent="1">
          <mxGeometry x="463" y="1360" width="40" height="40" as="geometry" />
        </mxCell>
        <mxCell id="l09lSK-N2BdjV8PcD0mf-141" value="" style="endArrow=classic;html=1;rounded=0;entryX=0.5;entryY=1;entryDx=0;entryDy=0;fillColor=#f8cecc;strokeColor=#b85450;strokeWidth=3;" edge="1" parent="1" target="l09lSK-N2BdjV8PcD0mf-140">
          <mxGeometry width="50" height="50" relative="1" as="geometry">
            <mxPoint x="483" y="1280" as="sourcePoint" />
            <mxPoint x="782" y="1529" as="targetPoint" />
          </mxGeometry>
        </mxCell>
        <mxCell id="l09lSK-N2BdjV8PcD0mf-147" value="&lt;span style=&quot;font-size: 24px;&quot;&gt;69 kN&lt;/span&gt;" style="text;html=1;strokeColor=none;fillColor=none;align=center;verticalAlign=middle;whiteSpace=wrap;rounded=0;" vertex="1" parent="1">
          <mxGeometry x="157" y="1240" width="86" height="30" as="geometry" />
        </mxCell>
        <mxCell id="l09lSK-N2BdjV8PcD0mf-148" value="&lt;span style=&quot;font-size: 24px;&quot;&gt;74 kN&lt;/span&gt;" style="text;html=1;strokeColor=none;fillColor=none;align=center;verticalAlign=middle;whiteSpace=wrap;rounded=0;" vertex="1" parent="1">
          <mxGeometry x="330" y="1240" width="78" height="30" as="geometry" />
        </mxCell>
        <mxCell id="l09lSK-N2BdjV8PcD0mf-150" value="&lt;span style=&quot;font-size: 24px;&quot;&gt;113 kN&lt;/span&gt;" style="text;html=1;strokeColor=none;fillColor=none;align=center;verticalAlign=middle;whiteSpace=wrap;rounded=0;" vertex="1" parent="1">
          <mxGeometry x="443" y="1240" width="80" height="30" as="geometry" />
        </mxCell>
        <mxCell id="l09lSK-N2BdjV8PcD0mf-151" value="" style="endArrow=classic;startArrow=classic;html=1;rounded=0;" edge="1" parent="1">
          <mxGeometry width="50" height="50" relative="1" as="geometry">
            <mxPoint x="200" y="1419" as="sourcePoint" />
            <mxPoint x="360" y="1419" as="targetPoint" />
          </mxGeometry>
        </mxCell>
        <mxCell id="l09lSK-N2BdjV8PcD0mf-152" value="" style="endArrow=classic;startArrow=classic;html=1;rounded=0;" edge="1" parent="1">
          <mxGeometry width="50" height="50" relative="1" as="geometry">
            <mxPoint x="360" y="1419" as="sourcePoint" />
            <mxPoint x="480" y="1419" as="targetPoint" />
          </mxGeometry>
        </mxCell>
        <mxCell id="l09lSK-N2BdjV8PcD0mf-153" value="&lt;span style=&quot;font-size: 24px;&quot;&gt;2.8 m&lt;/span&gt;" style="text;html=1;strokeColor=none;fillColor=none;align=center;verticalAlign=middle;whiteSpace=wrap;rounded=0;" vertex="1" parent="1">
          <mxGeometry x="239" y="1429" width="80" height="30" as="geometry" />
        </mxCell>
        <mxCell id="l09lSK-N2BdjV8PcD0mf-154" value="&lt;span style=&quot;font-size: 24px;&quot;&gt;1.3 m&lt;/span&gt;" style="text;html=1;strokeColor=none;fillColor=none;align=center;verticalAlign=middle;whiteSpace=wrap;rounded=0;" vertex="1" parent="1">
          <mxGeometry x="383" y="1429" width="80" height="30" as="geometry" />
        </mxCell>
        <mxCell id="l09lSK-N2BdjV8PcD0mf-155" value="" style="endArrow=classic;html=1;rounded=0;entryX=0.5;entryY=1;entryDx=0;entryDy=0;fillColor=#f8cecc;strokeColor=#b85450;strokeWidth=3;" edge="1" parent="1">
          <mxGeometry width="50" height="50" relative="1" as="geometry">
            <mxPoint x="303" y="1200" as="sourcePoint" />
            <mxPoint x="303" y="1400" as="targetPoint" />
          </mxGeometry>
        </mxCell>
        <mxCell id="l09lSK-N2BdjV8PcD0mf-156" value="" style="ellipse;whiteSpace=wrap;html=1;fillColor=#f5f5f5;strokeColor=#666666;fontColor=#333333;" vertex="1" parent="1">
          <mxGeometry x="273" y="757.5" width="40" height="40" as="geometry" />
        </mxCell>
        <mxCell id="l09lSK-N2BdjV8PcD0mf-157" value="" style="endArrow=classic;html=1;rounded=0;entryX=0.5;entryY=1;entryDx=0;entryDy=0;fillColor=#f8cecc;strokeColor=#b85450;strokeWidth=3;" edge="1" parent="1" target="l09lSK-N2BdjV8PcD0mf-156">
          <mxGeometry width="50" height="50" relative="1" as="geometry">
            <mxPoint x="293" y="677.5" as="sourcePoint" />
            <mxPoint x="592" y="926.5" as="targetPoint" />
          </mxGeometry>
        </mxCell>
        <mxCell id="l09lSK-N2BdjV8PcD0mf-158" value="" style="ellipse;whiteSpace=wrap;html=1;fillColor=#f5f5f5;fontColor=#333333;strokeColor=#666666;" vertex="1" parent="1">
          <mxGeometry x="431" y="757.5" width="40" height="40" as="geometry" />
        </mxCell>
        <mxCell id="l09lSK-N2BdjV8PcD0mf-159" value="" style="endArrow=classic;html=1;rounded=0;entryX=0.5;entryY=1;entryDx=0;entryDy=0;fillColor=#f8cecc;strokeColor=#b85450;strokeWidth=3;" edge="1" parent="1" target="l09lSK-N2BdjV8PcD0mf-158">
          <mxGeometry width="50" height="50" relative="1" as="geometry">
            <mxPoint x="451" y="677.5" as="sourcePoint" />
            <mxPoint x="750" y="926.5" as="targetPoint" />
          </mxGeometry>
        </mxCell>
        <mxCell id="l09lSK-N2BdjV8PcD0mf-160" value="" style="ellipse;whiteSpace=wrap;html=1;fillColor=#f5f5f5;fontColor=#333333;strokeColor=#666666;" vertex="1" parent="1">
          <mxGeometry x="556" y="757.5" width="40" height="40" as="geometry" />
        </mxCell>
        <mxCell id="l09lSK-N2BdjV8PcD0mf-161" value="" style="endArrow=classic;html=1;rounded=0;entryX=0.5;entryY=1;entryDx=0;entryDy=0;fillColor=#f8cecc;strokeColor=#b85450;strokeWidth=3;" edge="1" parent="1" target="l09lSK-N2BdjV8PcD0mf-160">
          <mxGeometry width="50" height="50" relative="1" as="geometry">
            <mxPoint x="576" y="677.5" as="sourcePoint" />
            <mxPoint x="875" y="926.5" as="targetPoint" />
          </mxGeometry>
        </mxCell>
        <mxCell id="l09lSK-N2BdjV8PcD0mf-162" value="&lt;span style=&quot;font-size: 24px;&quot;&gt;69 kN&lt;/span&gt;" style="text;html=1;strokeColor=none;fillColor=none;align=center;verticalAlign=middle;whiteSpace=wrap;rounded=0;" vertex="1" parent="1">
          <mxGeometry x="250" y="637.5" width="86" height="30" as="geometry" />
        </mxCell>
        <mxCell id="l09lSK-N2BdjV8PcD0mf-163" value="&lt;span style=&quot;font-size: 24px;&quot;&gt;74 kN&lt;/span&gt;" style="text;html=1;strokeColor=none;fillColor=none;align=center;verticalAlign=middle;whiteSpace=wrap;rounded=0;" vertex="1" parent="1">
          <mxGeometry x="423" y="637.5" width="78" height="30" as="geometry" />
        </mxCell>
        <mxCell id="l09lSK-N2BdjV8PcD0mf-164" value="&lt;span style=&quot;font-size: 24px;&quot;&gt;113 kN&lt;/span&gt;" style="text;html=1;strokeColor=none;fillColor=none;align=center;verticalAlign=middle;whiteSpace=wrap;rounded=0;" vertex="1" parent="1">
          <mxGeometry x="536" y="637.5" width="80" height="30" as="geometry" />
        </mxCell>
        <mxCell id="l09lSK-N2BdjV8PcD0mf-169" value="" style="endArrow=classic;html=1;rounded=0;entryX=0.5;entryY=1;entryDx=0;entryDy=0;fillColor=#f8cecc;strokeColor=#b85450;strokeWidth=3;" edge="1" parent="1">
          <mxGeometry width="50" height="50" relative="1" as="geometry">
            <mxPoint x="396" y="601" as="sourcePoint" />
            <mxPoint x="396" y="801" as="targetPoint" />
          </mxGeometry>
        </mxCell>
      </root>
    </mxGraphModel>
  </diagram>
</mxfile>
